<svg xmlns="http://www.w3.org/2000/svg" width="247.646" height="120.374" viewBox="0 0 247.646 120.374"><defs><style>.a{fill:#fff;stroke:#fff;}.a,.b,.c{fill-rule:evenodd;}.b{fill:#f58020;stroke:#f58020;}.c{fill:#353635;}.d{fill:#28a8e0;stroke:#bbbdbf;stroke-miterlimit:10;}.e{fill:#d02d4a;}.f{fill:#2e2c72;}.g{fill:#0ab3c4;}.h{fill:#3e7b40;}.i{fill:#f37f20;}.j{fill:#ed3764;}.k{fill:#48b3da;}.l{fill:#f8b817;}.m{fill:#d04827;}.n{fill:#95b43c;}.o{fill:#ef5f8a;}.p{fill:#fbbe1c;}.q{fill:#2e3389;}</style></defs><g transform="translate(-103.781 -108.433)"><g transform="translate(159.898 161.425)"><g transform="translate(0 0)"><path class="a" d="M246.015,259.117c-2.959,0-3.5-1.8-3.5-4.374V243.193h6.457V241.62h-6.457V235.9l-1.844.192v5.525h-4.036v1.573h4.036v11.549c0,3.722,1.307,6.1,5.342,6.1a8.3,8.3,0,0,0,3.574-.96l-.653-1.535A7.051,7.051,0,0,1,246.015,259.117Zm15.949-17.765a7.6,7.6,0,0,0-6.841,3.8V233.716h-1.806v26.858H255.2v-10.4a6.691,6.691,0,0,1,6.764-7.022c4.266,0,6.111,2.648,6.111,6.561v10.858h1.845V249.716C269.919,244.767,267.267,241.352,261.964,241.352Zm21.445-.038a9.537,9.537,0,0,0-9.646,9.785,9.3,9.3,0,0,0,9.646,9.746,10.444,10.444,0,0,0,8.186-3.646l-1.345-1.074C288.827,258,285.907,259,283.408,259a7.464,7.464,0,0,1-7.725-7.021h17.1C293.517,244.575,288.751,241.313,283.408,241.313Zm-7.725,9.017a7.583,7.583,0,0,1,7.725-7.29c4.573,0,7.648,2.609,7.686,7.29Z" transform="translate(-236.637 -233.716)"/></g></g><g transform="translate(159.52 180.513)"><g transform="translate(0)"><path class="b" d="M249.25,291.825a11.02,11.02,0,0,1,7.793,3.112l1.685-1.635a13.517,13.517,0,0,0-9.478-3.9c-7.53,0-13.374,5.064-13.374,13.293s6.055,13.294,13.374,13.294a13.3,13.3,0,0,0,9.478-3.9l-1.737-1.741a11.007,11.007,0,0,1-7.741,3.218c-5.9,0-10.846-3.851-10.846-10.868S243.352,291.825,249.25,291.825Zm37.177,3.534a11.8,11.8,0,0,0-10.637-6.014,13.4,13.4,0,0,0,0,26.8,12.157,12.157,0,0,0,10.637-5.96v5.539h2.58v-26.06h-2.58ZM275.79,313.611c-5.9,0-10.636-4.378-10.636-10.92a10.412,10.412,0,0,1,10.636-10.866C290.271,291.825,290.271,313.611,275.79,313.611Zm29.859.106c-4.054,0-4.791-2.48-4.791-6.014V291.825H309.7v-2.163h-8.846V281.8l-2.527.264v7.6H292.8v2.163h5.529V307.7c0,5.117,1.79,8.388,7.319,8.388a11.346,11.346,0,0,0,4.9-1.319l-.895-2.109A9.645,9.645,0,0,1,305.649,313.717Zm32.438-18.358a11.8,11.8,0,0,0-10.637-6.014,13.4,13.4,0,0,0,0,26.8,12.156,12.156,0,0,0,10.637-5.96v5.539h2.579v-26.06h-2.579ZM327.45,313.611c-5.9,0-10.636-4.378-10.636-10.92a10.412,10.412,0,0,1,10.636-10.866C341.931,291.825,341.931,313.611,327.45,313.611Zm20.222,2.11h2.58V278.795h-2.58Zm23.221-10.709-3,7.6-3.054-7.543-6.055-15.4h-2.791L366.418,315.4l-4.792,11.183h2.738l15.849-36.926h-2.791Zm24.119-3.8c-3.265-.581-7.793-1.266-7.9-4.748-.105-3.323,3.792-4.853,7.845-4.8a11.108,11.108,0,0,1,8.109,2.743l1.579-1.688a13.616,13.616,0,0,0-9.689-3.482c-5.266-.053-10.373,2.163-10.32,7.28.052,5.222,5.054,6.171,10.11,7.016,4.265.686,8.584,1.424,8.478,5.17-.158,4.115-4.95,4.958-8.109,4.958-3.475,0-7.371-1.319-9.53-4.431l-1.9,1.689c2.264,3.481,6.792,5.222,11.373,5.222s10.532-1.529,10.69-7.28C406.018,302.8,399.646,302.006,395.013,301.215Zm31.226,11.447a9.638,9.638,0,0,1-4,1.055c-4.055,0-4.792-2.48-4.792-6.014V291.825h8.846v-2.163h-8.846V281.8l-2.527.264v7.6h-5.528v2.163h5.528V307.7c0,5.117,1.79,8.388,7.319,8.388a11.353,11.353,0,0,0,4.9-1.319Z" transform="translate(-235.875 -278.795)"/></g></g><g transform="translate(160.812 222.144)"><path class="c" d="M239.357,380.667H241.7v-.518h-2.345V378.6h2.624v-.517h-3.155v4.7h3.242v-.51h-2.71v-1.612Zm7.158,1.2-2.79-3.782h-.551v4.7h.531v-3.776l2.79,3.776h.545v-4.7h-.525Zm3.976-3.292a2.123,2.123,0,0,1,1.408.544l.306-.4a2.614,2.614,0,0,0-1.714-.644,2.373,2.373,0,1,0-.026,4.743,2.851,2.851,0,0,0,1.727-.618v-1.706h-.472v1.417a2.2,2.2,0,0,1-1.222.4,1.865,1.865,0,1,1-.007-3.729Zm4.421-.49-2.086,4.7h.565l.518-1.189h2.537l.518,1.189h.578l-2.079-4.7Zm-.777,3,1.036-2.385,1.049,2.385Zm6.061-2.506a2.124,2.124,0,0,1,1.408.544l.306-.4a2.615,2.615,0,0,0-1.714-.644,2.373,2.373,0,1,0-.026,4.743,2.851,2.851,0,0,0,1.727-.618v-1.706h-.472v1.417a2.2,2.2,0,0,1-1.223.4,1.865,1.865,0,1,1-.007-3.729Zm3.544,2.09h2.345v-.518H263.74V378.6h2.624v-.517h-3.155v4.7h3.241v-.51h-2.71v-1.612Zm9.273,2.936h.412v-6.289h-.412Zm7.834-2.936h2.345v-.518h-2.345V378.6h2.624v-.517h-3.155v4.7h3.242v-.51h-2.71v-1.612Zm7.158,1.2-2.79-3.782h-.551v4.7h.532v-3.776l2.79,3.776h.545v-4.7H288Zm5.3-1.66h-2.8v-2.123h-.531v4.7h.531v-2.069h2.8v2.069h.531v-4.7H293.3v2.123Zm3.371-2.123-2.086,4.7h.565l.519-1.189h2.537l.518,1.189h.578l-2.079-4.7Zm-.778,3,1.037-2.385,1.049,2.385Zm7.5.786-2.79-3.782h-.551v4.7h.532v-3.776l2.79,3.776h.545v-4.7H303.4Zm3.955.417a1.855,1.855,0,1,1,0-3.709,1.943,1.943,0,0,1,1.375.591l.319-.41a2.5,2.5,0,0,0-1.7-.685,2.372,2.372,0,1,0-.02,4.743,2.555,2.555,0,0,0,1.727-.726l-.325-.37A2.015,2.015,0,0,1,307.354,382.286Zm3.212-1.619h2.345v-.518h-2.345V378.6h2.623v-.517h-3.154v4.7h3.242v-.51h-2.711Zm9.273,2.936h.412v-6.289h-.412Zm7.834-2.936h2.345v-.518h-2.345V378.6H330.3v-.517h-3.155v4.7h3.242v-.51h-2.71Zm7.157,1.2-2.79-3.782h-.551v4.7h.531v-3.776l2.79,3.776h.544v-4.7h-.524Zm3.371-3.782-2.086,4.7h.565l.518-1.189h2.537l.518,1.189h.577l-2.078-4.7Zm-.778,3,1.037-2.385,1.049,2.385Zm6.766-.759a1.019,1.019,0,0,0,.856-1.061c0-.739-.564-1.176-1.5-1.176h-1.959v4.7h1.993c1.05,0,1.674-.476,1.674-1.277A1.144,1.144,0,0,0,344.19,380.324Zm-2.073-1.72h1.4c.624,0,.989.269.989.746s-.366.766-.989.766h-1.4Zm1.4,3.675h-1.4v-1.653h1.4c.757,0,1.2.3,1.2.813C344.715,381.977,344.277,382.279,343.52,382.279Zm3.378-4.192h-.532v4.7h2.57v-.51H346.9Zm3.458,4.192v-1.612H352.7v-.518h-2.345V378.6h2.624v-.517h-3.155v4.7h3.242v-.51Z" transform="translate(-238.825 -377.314)"/></g><path class="d" d="M180.833,131.148l-.008-.045-12.2-1.439.017-.024-.122.011-.482-.057c-.247-.172-4.061-2.817-7.858-5.392-7.395-5.013-8.021-5.225-8.134-5.154l-17.684,3.071-.02,0-11.383,12.183.088.082L134.4,122.236l17.584-3.053c-.265,1.144-.616,9.926-.671,11.365l-16.556-8.093,2.319,16.912-11.824-2.35-.369-1.45-1,1.177-.275-.055-9.838-2.417-1.2,15.921.859-1.008c1.8.794,11.336,5.138,16.738,7.6l.187.734.117-.03-.163-.64.079.036.057.025,8.184-18.982,13.432-5.911L161,140.66l6.964,12.077.028.048,15.208-7.013.043-.019Zm-56.006,4.676.3,1.167-1.105-.22ZM113.4,149.038c-.266-.115-.273-.105-.3-.072l.007.078.044-.043,0,0-.017.056c.015.005.076.03.178.075l-.595.7,1.16-15.406,9.7,2.383.211.042Zm8.42,3.81c-2.157-.981-4.314-1.962-5.934-2.694-.81-.366-1.485-.671-1.959-.883l-.412-.183,10.415-12.212,1.229.244,4.973,19.515C129.069,156.151,125.444,154.5,121.817,152.847Zm30.269-20.972-13.527,5.954-.022.01-8.153,18.912-.112-.051-4.983-19.554,11.934,2.372-2.312-16.856,16.434,8.035.084.041,0-.093c.169-4.4.488-11.024.679-11.485.644.1,9.8,6.33,15.865,10.541L152.6,131.094l-.472-1.4-.115.039.5,1.491,15.875-1.439-7.359,10.743-8.922-8.624Zm15.954,20.752-6.922-12,6.905-10.082,6.644,6.772-6.7,11.7.105.06,6.687-11.667,8.041,8.353.087-.085-8.065-8.379h0l-6.724-6.855.455-.663,12.173,1.436,2.385,14.467Z" transform="translate(-5.075 -6.124)"/><circle class="e" cx="4.969" cy="4.969" r="4.969" transform="translate(103.781 138.943)"/><circle class="f" cx="5.474" cy="5.474" r="5.474" transform="translate(127.444 127.987)"/><circle class="g" cx="4" cy="4" r="4" transform="translate(142.35 108.433)"/><circle class="h" cx="3.326" cy="3.326" r="3.326" transform="translate(152.629 131.189)"/><circle class="i" cx="4.59" cy="4.59" r="4.59" transform="translate(158.332 140.46)"/><circle class="j" cx="3.326" cy="3.326" r="3.326" transform="translate(174.748 136.288)"/><circle class="k" cx="2.295" cy="2.295" r="2.295" transform="translate(160.626 121.233)"/><circle class="l" cx="3.747" cy="3.747" r="3.747" transform="translate(115.487 125.823)"/><circle class="m" cx="2.316" cy="2.316" r="2.316" transform="translate(127.444 113.739)"/><circle class="n" cx="4.537" cy="4.537" r="4.537" transform="translate(141.76 120.497)"/><circle class="n" cx="3.2" cy="3.2" r="3.2" transform="translate(122.139 147.539)"/><circle class="o" cx="2.4" cy="2.4" r="2.4" transform="translate(106.349 125.823)"/><circle class="p" cx="2.4" cy="2.4" r="2.4" transform="translate(173.275 122.634)"/><circle class="q" cx="2.138" cy="2.138" r="2.138" transform="translate(167.508 129.059)"/><path class="i" d="M203.511,269.069h-3.4V188.057l4.616-7.747,3.08,1.431-4.3,7.066Z" transform="translate(-55.626 -41.413)"/><path class="k" d="M187.283,270.533h-3.4l.006-80.848-3.482-4.865,2.761-1.976,4.117,5.751Z" transform="translate(-44.249 -42.877)"/><path class="f" d="M176.013,282.679h-3.4V208.884l-2.948-2.374,2.147-2.631,4.2,3.393Z" transform="translate(-38.046 -55.023)"/><path class="n" d="M214.813,285.074h-3.4V215.4l7.051-7.377,2.454,2.346-6.109,6.393Z" transform="translate(-62.168 -57.418)"/></g></svg>