<svg xmlns="http://www.w3.org/2000/svg" width="24" height="24" viewBox="0 0 24 24"><defs><style>.a{fill:none;}.b{fill:#032346;}</style></defs><g transform="translate(-1873 -30)"><rect class="a" width="24" height="24" transform="translate(1873 30)"/><g transform="translate(1874.911 32)"><path class="b" d="M8.528,9.366v-7.8a1.561,1.561,0,0,1,3.122,0v7.8a1.561,1.561,0,0,1-3.122,0Zm7.748-7.077a1.171,1.171,0,0,0-1.45,1.839,7.659,7.659,0,1,1-9.477,0A1.171,1.171,0,1,0,3.9,2.291a10,10,0,1,0,12.378,0Z" transform="translate(0 0)"/></g></g></svg>