<svg xmlns="http://www.w3.org/2000/svg" xmlns:xlink="http://www.w3.org/1999/xlink" width="262.283" height="58.538" viewBox="0 0 262.283 58.538"><defs><style>.a{fill:none;}.b{opacity:0.75;}.c{fill:#02346a;}.d{clip-path:url(#a);}.e,.n{fill:#fff;}.f{clip-path:url(#b);}.g,.o{fill:#032346;}.h{fill:url(#c);}.i{fill:url(#d);}.j{fill:url(#e);}.k{fill:url(#f);}.l{fill:#343434;}.m,.n,.o,.s{opacity:0.5;}.p{fill:url(#h);}.q{fill:url(#i);}.r{opacity:0.35;}.t{fill:#1a1a1a;}</style><clipPath id="a"><path class="a" d="M603.909,98.285h3.462V77.48a4.76,4.76,0,0,0-4.76-4.76H577.47a4.76,4.76,0,0,0-4.76,4.76v20.8h3.462v3.682h27.741Z" transform="translate(-572.71 -72.72)"/></clipPath><clipPath id="b"><path class="a" d="M603.9,140.31H576.162v3.682H572.7v20.8a4.76,4.76,0,0,0,4.76,4.76H602.6a4.76,4.76,0,0,0,4.76-4.76V144H603.9Z" transform="translate(-572.7 -140.31)"/></clipPath><linearGradient id="c" x1="0.499" x2="0.499" y2="1" gradientUnits="objectBoundingBox"><stop offset="0" stop-color="#58585a"/><stop offset="1" stop-color="#333"/></linearGradient><linearGradient id="d" x1="0.501" y1="0" x2="0.501" y2="1" xlink:href="#c"/><linearGradient id="e" x1="0.499" y1="0" x2="0.499" y2="1" xlink:href="#c"/><linearGradient id="f" x1="0.5" y1="0" x2="0.5" y2="1" xlink:href="#c"/><linearGradient id="h" x1="0.5" x2="0.5" y2="0.997" gradientUnits="objectBoundingBox"><stop offset="0" stop-color="#fff9f9"/><stop offset="1" stop-color="#292929"/></linearGradient><linearGradient id="i" x1="0.5" y1="0" x2="0.5" y2="1.001" xlink:href="#c"/></defs><g transform="translate(-1.934 -1.965)"><g class="b" transform="translate(0 0)"><path class="c" d="M603.909,98.285h3.462V77.48a4.76,4.76,0,0,0-4.76-4.76H577.47a4.76,4.76,0,0,0-4.76,4.76v20.8h3.462v3.682h27.741Z" transform="translate(-346.395 -70.755)"/><path class="c" d="M603.9,140.31H576.162v3.682H572.7v20.8a4.76,4.76,0,0,0,4.76,4.76H602.6a4.76,4.76,0,0,0,4.76-4.76V144H603.9Z" transform="translate(-346.39 -109.098)"/><g class="d" transform="translate(226.315 1.965)"><path class="e" d="M588.81,122.688v-3.375q0-6.573,4.163-8.931-4.163-2.272-4.163-8.6V100.4q0-5.136,2.722-7.945t7.789-2.808q5.089,0,7.789,2.808t2.7,7.945v1.376q0,6.274-4.163,8.6,4.163,2.363,4.163,8.931v3.375q0,5.141-2.7,7.949t-7.789,2.808q-5.089,0-7.789-2.808T588.81,122.688Zm6.72-19.628q0,4.513,3.808,4.513t3.778-4.513v-2.389a5.676,5.676,0,0,0-.991-3.808,4.111,4.111,0,0,0-5.595,0,5.629,5.629,0,0,0-1,3.795Zm0,19.451a5.5,5.5,0,0,0,1,3.747,3.621,3.621,0,0,0,2.8,1.09,3.561,3.561,0,0,0,2.761-1.077,5.661,5.661,0,0,0,1.021-3.765v-3.972q0-4.838-3.778-4.838t-3.808,4.838Z" transform="translate(-581.843 -82.324)"/></g><g class="f" transform="translate(226.31 31.212)"><path class="e" d="M589,96.165V89.93h20.524v5.989l-10.078,37.616H592.6l10.035-37.369Z" transform="translate(-581.947 -111.73)"/></g><rect class="g" width="3.466" height="0.865" transform="translate(226.306 27.529)"/><rect class="g" width="3.466" height="0.865" transform="translate(257.514 27.529)"/><rect class="h" width="3.466" height="0.433" transform="translate(226.306 27.529)"/><rect class="i" width="3.466" height="0.433" transform="translate(257.514 27.529)"/><rect class="j" width="3.033" height="0.433" transform="translate(226.739 27.529)"/><rect class="k" width="0.216" height="3.466" transform="translate(229.772 27.746)"/><rect class="j" width="3.25" height="0.216" transform="translate(226.522 27.529)"/><path class="l" d="M576.321,131.42v7.694h-3.63v-.16h3.466v-7.369H572.69v-.164Z" transform="translate(-346.384 -104.055)"/><path class="g" d="M572.69,131v.325h3.462v7.356H572.69v.325h3.791V131Z" transform="translate(-346.384 -103.817)"/><path class="l" d="M644.594,131.584v7.369h3.466v.16H644.43V131.42h3.631v.164Z" transform="translate(-387.081 -104.055)"/><path class="g" d="M644.06,131v8.018h3.791v-.325h-3.462v-7.356h3.462V131Z" transform="translate(-386.871 -103.817)"/><rect class="m" width="3.791" height="0.108" transform="translate(257.189 27.097)"/><rect class="n" width="3.791" height="0.108" transform="translate(257.189 35.223)"/><rect class="m" width="3.791" height="0.108" transform="translate(226.306 27.097)"/><rect class="o" width="3.791" height="0.108" transform="translate(226.306 35.223)"/><path class="c" d="M606.282,111.191l-2.834,8.018h-3.535l-.822,2.9H572.474l-.822-2.9h-3.535l-2.834-8.018c-.515-1.454,1.692-2.691,4.95-2.691h31.1C604.59,108.5,606.8,109.738,606.282,111.191Z" transform="translate(-342.139 -91.053)"/><path class="n" d="M601.337,108.51h-31.1c-3.258,0-5.461,1.233-4.946,2.687l.069.19.056.156v.03h0l.052.147v.03h0l.052.143h0v.03l.052.143h0v.03l.056.151.065.182c-.493-1.389,1.67-2.566,4.855-2.566h30.381c3.18,0,5.344,1.177,4.855,2.566l.065-.182.056-.151v-.03h0l.052-.143v-.03h0l.052-.143h0v-.03l.052-.147h0v-.03l.056-.156.069-.19C606.8,109.743,604.6,108.51,601.337,108.51Z" transform="translate(-342.145 -91.059)"/><path class="p" d="M577.78,122.1l2.025,2.964h17.4l-.753.714-.433.433-3.864,3.635h6.577l5.491-3.631.632-.433,1.238-.814,1.96-2.86Z" transform="translate(-349.271 -98.768)"/><path class="c" d="M388.954,98.651h3.462V77.92a4.76,4.76,0,0,0-4.76-4.76H362.61a4.76,4.76,0,0,0-4.76,4.76V98.651h3.462v3.669h27.642Z" transform="translate(-224.509 -71.005)"/><path class="c" d="M388.954,140.56H361.312v3.652H357.85v20.77a4.76,4.76,0,0,0,4.76,4.76h25.05a4.76,4.76,0,0,0,4.76-4.76v-20.77h-3.462Z" transform="translate(-224.509 -109.24)"/><path class="e" d="M373.85,122.745v-22.6q0-5.193,2.683-8.057t7.694-2.847q5.007,0,7.676,2.847t2.67,8.057v22.6q0,5.193-2.67,8.057t-7.676,2.847q-5.007,0-7.694-2.847T373.85,122.745Zm6.815.433q0,4.3,3.561,4.3t3.531-4.3V99.72q0-4.271-3.531-4.271t-3.561,4.271Z" transform="translate(-233.585 -80.127)"/><rect class="q" width="0.216" height="3.453" transform="translate(136.803 27.863)"/><path class="l" d="M361.488,131.7v7.663H357.87v-.16h3.453V131.86H357.87v-.16Z" transform="translate(-224.52 -104.214)"/><path class="g" d="M357.87,131.32v.325h3.462V139H357.87v.325h3.778V131.32Z" transform="translate(-224.52 -103.998)"/><path class="l" d="M429.52,131.86V139.2h3.457v.16H429.36V131.7h3.618v.16Z" transform="translate(-265.075 -104.214)"/><path class="g" d="M429,131.28v7.992h3.778v-.342h-3.462v-7.356h3.462v-.325Z" transform="translate(-264.871 -103.959)"/><g class="r" transform="translate(164.12 27.214)"><rect width="3.778" height="0.108"/></g><g class="s" transform="translate(164.12 35.314)"><rect class="e" width="3.778" height="0.108"/></g><g class="r" transform="translate(133.35 27.214)"><rect width="3.778" height="0.108"/></g><g class="s" transform="translate(133.35 35.314)"><rect class="e" width="3.778" height="0.108"/></g><path class="c" d="M514.924,98.651h3.462V77.92a4.76,4.76,0,0,0-4.76-4.76H488.58a4.76,4.76,0,0,0-4.76,4.76V98.651h3.462v3.669h27.642Z" transform="translate(-295.969 -71.005)"/><path class="c" d="M514.924,140.56H487.282v3.652H483.82v20.77a4.76,4.76,0,0,0,4.76,4.76h25.05a4.76,4.76,0,0,0,4.76-4.76v-20.77h-3.462Z" transform="translate(-295.969 -109.24)"/><path class="e" d="M505.52,100.613V95.784a10.385,10.385,0,0,0,2.7-.32,7.486,7.486,0,0,0,1.908-.757,4.609,4.609,0,0,0,1.3-1.242,8.722,8.722,0,0,0,.9-1.454q.3-.649.7-1.731h4.6v43.479h-6.8V100.613Z" transform="translate(-308.279 -80.717)"/><path class="l" d="M487.458,131.7v7.663H483.84v-.16h3.453V131.86H483.84v-.16Z" transform="translate(-295.981 -104.214)"/><path class="g" d="M483.84,131.32v.325H487.3V139H483.84v.325h3.778V131.32Z" transform="translate(-295.981 -103.998)"/><path class="l" d="M555.49,131.86V139.2h3.457v.16H555.33V131.7h3.618v.16Z" transform="translate(-336.536 -104.214)"/><path class="g" d="M555,131.28v7.992h3.778v-.342h-3.462v-7.356h3.462v-.325Z" transform="translate(-336.349 -103.959)"/><g class="r" transform="translate(218.634 27.214)"><rect width="3.778" height="0.108"/></g><g class="s" transform="translate(218.634 35.314)"><rect class="e" width="3.778" height="0.108"/></g><g class="r" transform="translate(187.859 27.214)"><rect width="3.778" height="0.108"/></g><g class="s" transform="translate(187.859 35.314)"><rect class="e" width="3.778" height="0.108"/></g><path class="c" d="M300.112,98.651h3.462V77.92a4.76,4.76,0,0,0-4.76-4.76H273.76A4.76,4.76,0,0,0,269,77.92V98.651h3.462v3.669h27.651Z" transform="translate(-174.105 -71.005)"/><path class="c" d="M300.112,140.56H272.462v3.652H269v20.77a4.76,4.76,0,0,0,4.76,4.76h25.05a4.76,4.76,0,0,0,4.76-4.76v-20.77h-3.462Z" transform="translate(-174.105 -109.24)"/><path class="e" d="M285.43,133.724v-5.331a15.577,15.577,0,0,1,.744-4.864,14.989,14.989,0,0,1,1.947-4,36.75,36.75,0,0,1,2.648-3.332q1.445-1.618,2.891-3.228a34.965,34.965,0,0,0,2.635-3.3,15.214,15.214,0,0,0,2.67-8.7,6.526,6.526,0,0,0-.865-3.894,3.163,3.163,0,0,0-2.622-1.09q-3.531,0-3.531,4.271v4.682H285.43V100.7q0-5.24,2.631-8.074t7.568-2.834q4.955,0,7.551,2.834t2.6,8.074a18.825,18.825,0,0,1-.753,5.348,19.183,19.183,0,0,1-1.947,4.531,35.968,35.968,0,0,1-2.622,3.773q-1.432,1.8-2.882,3.362t-2.64,2.986a15.037,15.037,0,0,0-1.947,2.938,6.582,6.582,0,0,0-.753,2.938,5.227,5.227,0,0,0,.061.939h12.856v6.21Z" transform="translate(-183.425 -80.439)"/><rect class="q" width="0.216" height="3.453" transform="translate(98.365 27.863)"/><path class="l" d="M272.648,131.7v7.663H269.03v-.16h3.457V131.86H269.03v-.16Z" transform="translate(-174.122 -104.214)"/><path class="g" d="M269,131.32v.325h3.462V139H269v.325h3.778V131.32Z" transform="translate(-174.105 -103.998)"/><path class="l" d="M340.684,131.86V139.2h3.453v.16H340.52V131.7h3.618v.16Z" transform="translate(-214.678 -104.214)"/><path class="g" d="M340.15,131.28v7.992h3.778v-.342h-3.462v-7.356h3.462v-.325Z" transform="translate(-214.468 -103.959)"/><g class="r" transform="translate(125.682 27.214)"><rect width="3.778" height="0.108"/></g><g class="s" transform="translate(125.682 35.314)"><rect class="e" width="3.778" height="0.108"/></g><g class="r" transform="translate(94.908 27.214)"><rect width="3.778" height="0.108"/></g><g class="s" transform="translate(94.908 35.314)"><rect class="e" width="3.778" height="0.108"/></g><path class="c" d="M85.274,98.651h3.462V77.92a4.76,4.76,0,0,0-4.76-4.76H58.93a4.76,4.76,0,0,0-4.76,4.76V98.651h3.462v3.669H85.274Z" transform="translate(-52.236 -71.005)"/><path class="c" d="M85.274,140.56H57.632v3.652H54.17v20.77a4.76,4.76,0,0,0,4.76,4.76H83.98a4.76,4.76,0,0,0,4.76-4.76v-20.77H85.278Z" transform="translate(-52.236 -109.24)"/><path class="e" d="M75.87,100.613V95.784a10.384,10.384,0,0,0,2.7-.32,7.485,7.485,0,0,0,1.908-.757,4.608,4.608,0,0,0,1.3-1.242,8.725,8.725,0,0,0,.9-1.454q.3-.649.7-1.731h4.6v43.479h-6.8V100.613Z" transform="translate(-64.546 -80.717)"/><rect class="q" width="0.216" height="3.453" transform="translate(5.396 27.863)"/><g class="s" transform="translate(5.396 31.48)"><rect class="e" width="27.317" height="0.216"/></g><rect class="g" width="27.4" height="0.325" transform="translate(5.542 31.156)"/><path class="l" d="M57.808,131.7v7.663H54.19v-.16h3.453V131.86H54.19v-.16Z" transform="translate(-52.247 -104.214)"/><path class="g" d="M54.19,131.32v.325h3.462V139H54.19v.325h3.778V131.32Z" transform="translate(-52.247 -103.998)"/><path class="l" d="M125.84,131.86V139.2H129.3v.16H125.68V131.7H129.3v.16Z" transform="translate(-92.802 -104.214)"/><path class="g" d="M125.3,131.28v7.992h3.765v-.342H125.6v-7.356h3.462v-.325Z" transform="translate(-92.587 -103.959)"/><g class="r" transform="translate(32.713 27.214)"><rect width="3.778" height="0.108"/></g><g class="s" transform="translate(32.713 35.314)"><rect class="e" width="3.778" height="0.108"/></g><g class="r" transform="translate(1.943 27.214)"><rect width="3.778" height="0.108"/></g><g class="s" transform="translate(1.943 35.314)"><rect class="e" width="3.778" height="0.108"/></g><path class="c" d="M174.108,98.651h3.462V77.92a4.76,4.76,0,0,0-4.76-4.76H147.76A4.76,4.76,0,0,0,143,77.92V98.651h3.462v3.669H174.1Z" transform="translate(-102.628 -71.005)"/><path class="c" d="M174.108,140.56H146.462v3.652H143v20.77a4.76,4.76,0,0,0,4.76,4.76h25.05a4.76,4.76,0,0,0,4.76-4.76v-20.77h-3.462Z" transform="translate(-102.628 -109.24)"/><path class="e" d="M159.42,133.724v-5.331a15.579,15.579,0,0,1,.744-4.864,14.989,14.989,0,0,1,1.947-4,36.752,36.752,0,0,1,2.648-3.332q1.445-1.618,2.891-3.228a34.969,34.969,0,0,0,2.635-3.3,15.214,15.214,0,0,0,2.67-8.7,6.526,6.526,0,0,0-.865-3.894,3.163,3.163,0,0,0-2.622-1.09q-3.531,0-3.531,4.271v4.682H159.42V100.7q0-5.24,2.631-8.074t7.573-2.834q4.955,0,7.551,2.834t2.6,8.074a18.823,18.823,0,0,1-.753,5.348,19.181,19.181,0,0,1-1.947,4.531,35.975,35.975,0,0,1-2.622,3.773q-1.432,1.8-2.882,3.362t-2.64,2.986a15.033,15.033,0,0,0-1.947,2.938,6.581,6.581,0,0,0-.753,2.938,5.226,5.226,0,0,0,.061.939h12.856v6.21Z" transform="translate(-111.942 -80.439)"/><rect class="q" width="0.216" height="3.453" transform="translate(43.834 27.863)"/><g class="s" transform="translate(43.834 31.48)"><rect class="e" width="27.481" height="0.216"/></g><rect class="g" width="27.3" height="0.325" transform="translate(44.082 31.156)"/><path class="l" d="M146.638,131.7v7.663H143.02v-.16h3.453V131.86H143.02v-.16Z" transform="translate(-102.639 -104.214)"/><path class="g" d="M143,131.32v.325h3.462V139H143v.325h3.778V131.32Z" transform="translate(-102.628 -103.998)"/><path class="l" d="M214.67,131.86V139.2h3.457v.16H214.51V131.7h3.618v.16Z" transform="translate(-143.194 -104.214)"/><path class="t" d="M214.14,131.28v7.992h3.778v-.342h-3.462v-7.356h3.462v-.325Z" transform="translate(-142.984 -103.959)"/><g class="r" transform="translate(71.156 27.214)"><rect width="3.778" height="0.108"/></g><g class="s" transform="translate(71.156 35.314)"><rect class="e" width="3.778" height="0.108"/></g><g class="r" transform="translate(40.381 27.214)"><rect width="3.778" height="0.108"/></g><g class="s" transform="translate(40.381 35.314)"><rect class="e" width="3.778" height="0.108"/></g><rect class="c" width="5.699" height="5.699" transform="translate(82.073 28.641) rotate(-90)"/><rect class="c" width="5.699" height="5.699" transform="translate(82.069 40.013) rotate(-90)"/><rect class="c" width="5.699" height="5.699" transform="translate(175.034 28.646) rotate(-90)"/><rect class="c" width="5.699" height="5.699" transform="translate(175.029 40.018) rotate(-90)"/><g class="s" transform="translate(98.682 31.425)"><rect class="e" width="27" height="0.216"/></g><rect class="g" width="27.3" height="0.325" transform="translate(98.59 31.1)"/><g class="s" transform="translate(137.134 31.425)"><rect class="e" width="27" height="0.216"/></g><rect class="g" width="27.3" height="0.325" transform="translate(137.042 31.1)"/><g class="s" transform="translate(191.682 31.425)"><rect class="e" width="27" height="0.216"/></g><rect class="g" width="27.3" height="0.325" transform="translate(191.59 31.1)"/><g class="s" transform="translate(230.184 31.425)"><rect class="e" width="27" height="0.216"/></g><rect class="g" width="27.3" height="0.325" transform="translate(230.092 31.1)"/></g></g></svg>